ffmpeg version 2023-03-05-git-912ac82a3c-essentials_build-www.gyan.dev Copyright (c) 2000-2023 the FFmpeg developers  built with gcc 12.2.0 (Rev10, Built by MSYS2 project)  configuration: --enable-gpl --enable-version3 --enable-static --disable-w32threads --disable-autodetect --enable-fontconfig --enable-iconv --enable-gnutls --enable-libxml2 --enable-gmp --enable-bzlib --enable-lzma --enable-zlib --enable-libsrt --enable-libssh --enable-libzmq --enable-avisynth --enable-sdl2 --enable-libwebp --enable-libx264 --enable-libx265 --enable-libxvid --enable-libaom --enable-libopenjpeg --enable-libvpx --enable-mediafoundation --enable-libass --enable-libfreetype --enable-libfribidi --enable-libvidstab --enable-libvmaf --enable-libzimg --enable-amf --enable-cuda-llvm --enable-cuvid --enable-ffnvcodec --enable-nvdec --enable-nvenc --enable-d3d11va --enable-dxva2 --enable-libvpl --enable-libgme --enable-libopenmpt --enable-libopencore-amrwb --enable-libmp3lame --enable-libtheora --enable-libvo-amrwbenc --enable-libgsm --enable-libopencore-amrnb --enable-libopus --enable-libspeex --enable-libvorbis --enable-librubberband  libavutil      58.  3.100 / 58.  3.100  libavcodec     60.  6.100 / 60.  6.100  libavformat    60.  4.100 / 60.  4.100  libavdevice    60.  2.100 / 60.  2.100  libavfilter     9.  4.100 /  9.  4.100  libswscale      7.  2.100 /  7.  2.100  libswresample   4. 11.100 /  4. 11.100  libpostproc    57.  2.100 / 57.  2.100Input #0, aac, from 'https://streaming.fueralle.org/coloradio_48.aac':  Metadata:    icy-br          : 48    icy-description : freie Radios aus Dresden (wochendtags 18-23 / wochende 12-24) und anderswo    icy-genre       : freies Radio    icy-name        : coloRadio    icy-private     : 0    icy-pub         : 1    icy-url         : http://www.coloradio.org  Duration: N/A, bitrate: 31 kb/s  Stream #0:0: Audio: aac (LC), 44100 Hz, mono, fltp, 31 kb/sStream mapping:  Stream #0:0 -> #0:0 (aac (native) -> pcm_s16le (native))Press [q] to stop, [?] for helpOutput #0, null, to '/dev/null':  Metadata:    icy-br          : 48    icy-description : freie Radios aus Dresden (wochendtags 18-23 / wochende 12-24) und anderswo    icy-genre       : freies Radio    icy-name        : coloRadio    icy-private     : 0    icy-pub         : 1    icy-url         : http://www.coloradio.org    encoder         : Lavf60.4.100  Stream #0:0: Audio: pcm_s16le, 44100 Hz, mono, s16, 705 kb/s    Metadata:      encoder         : Lavc60.6.100 pcm_s16lesize=       0kB time=00:00:00.00 bitrate=N/A speed=N/A    size=N/A time=00:00:01.76 bitrate=N/A speed=2.61x    size=N/A time=00:00:01.99 bitrate=N/A speed=2.94x    video:0kB audio:172kB subtitle:0kB other streams:0kB global headers:0kB muxing overhead: unknown[Parsed_volumedetect_0 @ 0000022bd2c652c0] n_samples: 88200[Parsed_volumedetect_0 @ 0000022bd2c652c0] mean_volume: -14.4 dB[Parsed_volumedetect_0 @ 0000022bd2c652c0] max_volume: -0.3 dB[Parsed_volumedetect_0 @ 0000022bd2c652c0] histogram_0db: 6[Parsed_volumedetect_0 @ 0000022bd2c652c0] histogram_1db: 137